<svg width="84" height="84" viewBox="0 0 84 84" fill="none" xmlns="http://www.w3.org/2000/svg">
<g filter="url(#filter0_d_208_1379)">
<rect x="16" y="8" width="52" height="52" rx="10" fill="#F6FAFD"/>
<g clip-path="url(#clip0_208_1379)">
<path fill-rule="evenodd" clip-rule="evenodd" d="M41.0281 24C40.7873 24 40.5546 24.0869 40.3727 24.2447C40.1909 24.4025 40.072 24.6206 40.0381 24.859L39.6681 27.457C38.9712 27.723 38.3213 28.0987 37.7431 28.57L35.3061 27.59C35.0826 27.5002 34.8343 27.494 34.6067 27.5727C34.3791 27.6513 34.1875 27.8094 34.0671 28.018L32.9351 29.981C32.8146 30.1894 32.7733 30.4344 32.8188 30.6708C32.8644 30.9072 32.9937 31.1193 33.1831 31.268L35.2491 32.889C35.1318 33.625 35.1318 34.375 35.2491 35.111L33.1831 36.732C32.9937 36.8807 32.8644 37.0928 32.8188 37.3292C32.7733 37.5656 32.8146 37.8106 32.9351 38.019L34.0671 39.981C34.1875 40.1896 34.3791 40.3477 34.6067 40.4263C34.8343 40.505 35.0826 40.4988 35.3061 40.409L37.7441 39.43C38.3217 39.9011 38.9709 40.2768 39.6671 40.543L40.0391 43.141C40.073 43.3794 40.1919 43.5975 40.3737 43.7553C40.5556 43.9131 40.7883 44 41.0291 44H43.2941C43.5349 44 43.7676 43.9131 43.9494 43.7553C44.1313 43.5975 44.2501 43.3794 44.2841 43.141L44.6551 40.543C45.3516 40.2772 46.0011 39.9018 46.5791 39.431L49.0171 40.409C49.2404 40.4985 49.4885 40.5045 49.7159 40.4259C49.9433 40.3473 50.1347 40.1893 50.2551 39.981L51.3881 38.019C51.5085 37.8104 51.5496 37.5654 51.5039 37.329C51.4581 37.0926 51.3286 36.8806 51.1391 36.732L49.0741 35.111C49.1913 34.375 49.1913 33.625 49.0741 32.889L51.1391 31.268C51.3286 31.1194 51.4581 30.9074 51.5039 30.671C51.5496 30.4346 51.5085 30.1896 51.3881 29.981L50.2551 28.019C50.1347 27.8104 49.9431 27.6523 49.7155 27.5737C49.4879 27.495 49.2395 27.5012 49.0161 27.591L46.5791 28.57C46.0012 28.0988 45.3517 27.7231 44.6551 27.457L44.2841 24.86C44.2501 24.6216 44.1313 24.4035 43.9494 24.2457C43.7676 24.0879 43.5349 24.001 43.2941 24.001H41.0281V24ZM42.1611 37C42.9567 37 43.7198 36.6839 44.2824 36.1213C44.845 35.5587 45.1611 34.7956 45.1611 34C45.1611 33.2044 44.845 32.4413 44.2824 31.8787C43.7198 31.3161 42.9567 31 42.1611 31C41.3654 31 40.6024 31.3161 40.0398 31.8787C39.4772 32.4413 39.1611 33.2044 39.1611 34C39.1611 34.7956 39.4772 35.5587 40.0398 36.1213C40.6024 36.6839 41.3654 37 42.1611 37Z" fill="#656084"/>
</g>
</g>
<defs>
<filter id="filter0_d_208_1379" x="0" y="0" width="84" height="84" filterUnits="userSpaceOnUse" color-interpolation-filters="sRGB">
<feFlood flood-opacity="0" result="BackgroundImageFix"/>
<feColorMatrix in="SourceAlpha" type="matrix" values="0 0 0 0 0 0 0 0 0 0 0 0 0 0 0 0 0 0 127 0" result="hardAlpha"/>
<feOffset dy="8"/>
<feGaussianBlur stdDeviation="8"/>
<feColorMatrix type="matrix" values="0 0 0 0 0 0 0 0 0 0 0 0 0 0 0 0 0 0 0.04 0"/>
<feBlend mode="normal" in2="BackgroundImageFix" result="effect1_dropShadow_208_1379"/>
<feBlend mode="normal" in="SourceGraphic" in2="effect1_dropShadow_208_1379" result="shape"/>
</filter>
<clipPath id="clip0_208_1379">
<rect width="20" height="20" fill="white" transform="translate(32 24)"/>
</clipPath>
</defs>
</svg>
