<svg width="173" height="76" viewBox="0 0 173 76" fill="none" xmlns="http://www.w3.org/2000/svg">
<g filter="url(#filter0_d_208_1373)">
<rect x="16" y="8" width="141" height="44" rx="22" fill="#F6FAFD"/>
<circle cx="55.5" cy="30" r="3.5" fill="#1DBF73"/>
<path d="M75.72 30.192C76.4773 30.3733 77.048 30.6987 77.432 31.168C77.8267 31.6267 78.024 32.2187 78.024 32.944C78.024 33.9147 77.6667 34.6667 76.952 35.2C76.248 35.7333 75.2187 36 73.864 36H68.744V24.8H73.56C74.7867 24.8 75.7413 25.0507 76.424 25.552C77.1173 26.0427 77.464 26.752 77.464 27.68C77.464 28.288 77.3093 28.8053 77 29.232C76.7013 29.6587 76.2747 29.9787 75.72 30.192ZM70.328 29.728H73.448C74.2267 29.728 74.8187 29.5733 75.224 29.264C75.64 28.9547 75.848 28.5013 75.848 27.904C75.848 27.3067 75.64 26.8533 75.224 26.544C74.808 26.224 74.216 26.064 73.448 26.064H70.328V29.728ZM73.832 34.736C75.5493 34.736 76.408 34.096 76.408 32.816C76.408 32.176 76.1893 31.7067 75.752 31.408C75.3253 31.0987 74.6853 30.944 73.832 30.944H70.328V34.736H73.832ZM88.434 36.096C87.57 36.096 86.7967 35.9093 86.114 35.536C85.442 35.1627 84.914 34.6507 84.53 34C84.146 33.3387 83.954 32.592 83.954 31.76C83.954 30.928 84.146 30.1867 84.53 29.536C84.914 28.8747 85.442 28.3627 86.114 28C86.7967 27.6267 87.57 27.44 88.434 27.44C89.202 27.44 89.8847 27.5947 90.482 27.904C91.09 28.2133 91.5593 28.6613 91.89 29.248L90.722 30C90.4553 29.5947 90.1247 29.2907 89.73 29.088C89.3353 28.8853 88.898 28.784 88.418 28.784C87.8633 28.784 87.362 28.9067 86.914 29.152C86.4767 29.3973 86.13 29.7493 85.874 30.208C85.6287 30.656 85.506 31.1733 85.506 31.76C85.506 32.3573 85.6287 32.8853 85.874 33.344C86.13 33.792 86.4767 34.1387 86.914 34.384C87.362 34.6293 87.8633 34.752 88.418 34.752C88.898 34.752 89.3353 34.6507 89.73 34.448C90.1247 34.2453 90.4553 33.9413 90.722 33.536L91.89 34.272C91.5593 34.8587 91.09 35.312 90.482 35.632C89.8847 35.9413 89.202 36.096 88.434 36.096ZM101.418 31.808C101.418 31.9253 101.407 32.08 101.386 32.272H94.5056C94.6016 33.0187 94.927 33.6213 95.4816 34.08C96.047 34.528 96.7456 34.752 97.5776 34.752C98.591 34.752 99.407 34.4107 100.026 33.728L100.874 34.72C100.49 35.168 100.01 35.5093 99.4336 35.744C98.8683 35.9787 98.2336 36.096 97.5296 36.096C96.6336 36.096 95.839 35.9147 95.1456 35.552C94.4523 35.1787 93.9136 34.6613 93.5296 34C93.1563 33.3387 92.9696 32.592 92.9696 31.76C92.9696 30.9387 93.151 30.1973 93.5136 29.536C93.887 28.8747 94.3936 28.3627 95.0336 28C95.6843 27.6267 96.415 27.44 97.2256 27.44C98.0363 27.44 98.7563 27.6267 99.3856 28C100.026 28.3627 100.522 28.8747 100.874 29.536C101.236 30.1973 101.418 30.9547 101.418 31.808ZM97.2256 28.736C96.4896 28.736 95.871 28.96 95.3696 29.408C94.879 29.856 94.591 30.4427 94.5056 31.168H99.9456C99.8603 30.4533 99.567 29.872 99.0656 29.424C98.575 28.9653 97.9616 28.736 97.2256 28.736ZM109.761 28.864H106.657V36H105.121V28.864H102.017V27.52H109.761V28.864ZM111.332 27.52H112.868V33.696L118.068 27.52H119.46V36H117.924V29.824L112.74 36H111.332V27.52Z" fill="#1DBF73"/>
</g>
<defs>
<filter id="filter0_d_208_1373" x="0" y="0" width="173" height="76" filterUnits="userSpaceOnUse" color-interpolation-filters="sRGB">
<feFlood flood-opacity="0" result="BackgroundImageFix"/>
<feColorMatrix in="SourceAlpha" type="matrix" values="0 0 0 0 0 0 0 0 0 0 0 0 0 0 0 0 0 0 127 0" result="hardAlpha"/>
<feOffset dy="8"/>
<feGaussianBlur stdDeviation="8"/>
<feColorMatrix type="matrix" values="0 0 0 0 0 0 0 0 0 0 0 0 0 0 0 0 0 0 0.04 0"/>
<feBlend mode="normal" in2="BackgroundImageFix" result="effect1_dropShadow_208_1373"/>
<feBlend mode="normal" in="SourceGraphic" in2="effect1_dropShadow_208_1373" result="shape"/>
</filter>
</defs>
</svg>
